<svg width="298" height="34" viewBox="0 0 298 34" fill="none" xmlns="http://www.w3.org/2000/svg">
<path d="M11.5 3.744H0.184V0.799998H26.22V3.744H14.904V33H11.5V3.744ZM53.6461 33L46.2861 22.65C45.4581 22.742 44.5994 22.788 43.7101 22.788H35.0621V33H31.6581V0.799998H43.7101C47.8194 0.799998 51.0394 1.78133 53.3701 3.744C55.7007 5.70667 56.8661 8.40533 56.8661 11.84C56.8661 14.3547 56.2221 16.486 54.9341 18.234C53.6767 19.9513 51.8674 21.1933 49.5061 21.96L57.3721 33H53.6461ZM43.6181 19.89C46.8074 19.89 49.2454 19.1847 50.9321 17.774C52.6187 16.3633 53.4621 14.3853 53.4621 11.84C53.4621 9.23333 52.6187 7.24 50.9321 5.86C49.2454 4.44933 46.8074 3.744 43.6181 3.744H35.0621V19.89H43.6181ZM85.0943 24.398H67.1543L63.2903 33H59.7483L74.4683 0.799998H77.8263L92.5463 33H88.9583L85.0943 24.398ZM83.8523 21.638L76.1243 4.342L68.3963 21.638H83.8523ZM122.983 0.799998L108.723 33H105.365L91.1048 0.799998H94.7848L107.113 28.768L119.533 0.799998H122.983ZM150.426 30.056V33H127.656V0.799998H149.736V3.744H131.06V15.198H147.712V18.096H131.06V30.056H150.426ZM158.428 0.799998H161.832V30.056H179.864V33H158.428V0.799998ZM185.515 0.799998H188.919V30.056H206.951V33H185.515V0.799998ZM235.373 30.056V33H212.603V0.799998H234.683V3.744H216.007V15.198H232.659V18.096H216.007V30.056H235.373ZM265.363 33L258.003 22.65C257.175 22.742 256.316 22.788 255.427 22.788H246.779V33H243.375V0.799998H255.427C259.536 0.799998 262.756 1.78133 265.087 3.744C267.418 5.70667 268.583 8.40533 268.583 11.84C268.583 14.3547 267.939 16.486 266.651 18.234C265.394 19.9513 263.584 21.1933 261.223 21.96L269.089 33H265.363ZM255.335 19.89C258.524 19.89 260.962 19.1847 262.649 17.774C264.336 16.3633 265.179 14.3853 265.179 11.84C265.179 9.23333 264.336 7.24 262.649 5.86C260.962 4.44933 258.524 3.744 255.335 3.744H246.779V19.89H255.335ZM285.495 33.276C283.103 33.276 280.803 32.8927 278.595 32.126C276.418 31.3593 274.731 30.3473 273.535 29.09L274.869 26.468C276.034 27.6333 277.583 28.584 279.515 29.32C281.447 30.0253 283.44 30.378 285.495 30.378C288.378 30.378 290.54 29.8567 291.981 28.814C293.422 27.7407 294.143 26.3607 294.143 24.674C294.143 23.386 293.744 22.3587 292.947 21.592C292.18 20.8253 291.23 20.2427 290.095 19.844C288.96 19.4147 287.381 18.9547 285.357 18.464C282.934 17.8507 281.002 17.268 279.561 16.716C278.12 16.1333 276.878 15.2593 275.835 14.094C274.823 12.9287 274.317 11.3493 274.317 9.356C274.317 7.73067 274.746 6.25867 275.605 4.94C276.464 3.59067 277.782 2.51733 279.561 1.72C281.34 0.922666 283.548 0.523999 286.185 0.523999C288.025 0.523999 289.819 0.784666 291.567 1.306C293.346 1.79667 294.879 2.48666 296.167 3.376L295.017 6.09C293.668 5.20067 292.226 4.54133 290.693 4.112C289.16 3.652 287.657 3.422 286.185 3.422C283.364 3.422 281.232 3.974 279.791 5.078C278.38 6.15133 277.675 7.54667 277.675 9.264C277.675 10.552 278.058 11.5947 278.825 12.392C279.622 13.1587 280.604 13.7567 281.769 14.186C282.965 14.5847 284.56 15.0293 286.553 15.52C288.914 16.1027 290.816 16.6853 292.257 17.268C293.729 17.82 294.971 18.6787 295.983 19.844C296.995 20.9787 297.501 22.5273 297.501 24.49C297.501 26.1153 297.056 27.6027 296.167 28.952C295.308 30.2707 293.974 31.3287 292.165 32.126C290.356 32.8927 288.132 33.276 285.495 33.276Z" fill="white"/>
<path d="M11.5 3.744H14.5V0.743998H11.5V3.744ZM0.184 3.744H-2.816V6.744H0.184V3.744ZM0.184 0.799998V-2.2H-2.816V0.799998H0.184ZM26.22 0.799998H29.22V-2.2H26.22V0.799998ZM26.22 3.744V6.744H29.22V3.744H26.22ZM14.904 3.744V0.743998H11.904V3.744H14.904ZM14.904 33V36H17.904V33H14.904ZM11.5 33H8.5V36H11.5V33ZM11.5 0.743998H0.184V6.744H11.5V0.743998ZM3.184 3.744V0.799998H-2.816V3.744H3.184ZM0.184 3.8H26.22V-2.2H0.184V3.8ZM23.22 0.799998V3.744H29.22V0.799998H23.22ZM26.22 0.743998H14.904V6.744H26.22V0.743998ZM11.904 3.744V33H17.904V3.744H11.904ZM14.904 30H11.5V36H14.904V30ZM14.5 33V3.744H8.5V33H14.5ZM53.6461 33L51.2012 34.7386L52.0982 36H53.6461V33ZM46.2861 22.65L48.7309 20.9114L47.7084 19.4735L45.9548 19.6683L46.2861 22.65ZM35.0621 22.788V19.788H32.0621V22.788H35.0621ZM35.0621 33V36H38.0621V33H35.0621ZM31.6581 33H28.6581V36H31.6581V33ZM31.6581 0.799998V-2.2H28.6581V0.799998H31.6581ZM53.3701 3.744L51.4377 6.03873L51.4377 6.03873L53.3701 3.744ZM54.9341 18.234L52.5189 16.4544L52.5135 16.4618L54.9341 18.234ZM49.5061 21.96L48.5796 19.1066L44.6894 20.3697L47.0628 23.7008L49.5061 21.96ZM57.3721 33V36H63.1932L59.8153 31.2592L57.3721 33ZM50.9321 17.774L52.8567 20.0752L52.8567 20.0752L50.9321 17.774ZM50.9321 5.86L49.0074 8.16123L49.0198 8.17162L49.0324 8.18187L50.9321 5.86ZM35.0621 3.744V0.743998H32.0621V3.744H35.0621ZM35.0621 19.89H32.0621V22.89H35.0621V19.89ZM56.0909 31.2614L48.7309 20.9114L43.8412 24.3886L51.2012 34.7386L56.0909 31.2614ZM45.9548 19.6683C45.2439 19.7473 44.4961 19.788 43.7101 19.788V25.788C44.7027 25.788 45.6723 25.7367 46.6174 25.6317L45.9548 19.6683ZM43.7101 19.788H35.0621V25.788H43.7101V19.788ZM32.0621 22.788V33H38.0621V22.788H32.0621ZM35.0621 30H31.6581V36H35.0621V30ZM34.6581 33V0.799998H28.6581V33H34.6581ZM31.6581 3.8H43.7101V-2.2H31.6581V3.8ZM43.7101 3.8C47.3597 3.8 49.811 4.66893 51.4377 6.03873L55.3025 1.44927C52.2678 -1.10627 48.2791 -2.2 43.7101 -2.2V3.8ZM51.4377 6.03873C53.0004 7.3547 53.8661 9.16388 53.8661 11.84H59.8661C59.8661 7.64679 58.4011 4.05863 55.3025 1.44926L51.4377 6.03873ZM53.8661 11.84C53.8661 13.8193 53.3691 15.3006 52.5189 16.4544L57.3492 20.0136C59.0751 17.6714 59.8661 14.89 59.8661 11.84H53.8661ZM52.5135 16.4618C51.6876 17.5899 50.4448 18.5011 48.5796 19.1066L50.4325 24.8134C53.29 23.8856 55.6659 22.3128 57.3547 20.0062L52.5135 16.4618ZM47.0628 23.7008L54.9288 34.7408L59.8153 31.2592L51.9493 20.2192L47.0628 23.7008ZM57.3721 30H53.6461V36H57.3721V30ZM43.6181 22.89C47.2016 22.89 50.4329 22.1024 52.8567 20.0752L49.0074 15.4728C48.0579 16.2669 46.4132 16.89 43.6181 16.89V22.89ZM52.8567 20.0752C55.3362 18.0015 56.4621 15.1177 56.4621 11.84H50.4621C50.4621 13.653 49.9012 14.7252 49.0074 15.4728L52.8567 20.0752ZM56.4621 11.84C56.4621 8.52904 55.3532 5.60114 52.8318 3.53813L49.0324 8.18187C49.8842 8.87886 50.4621 9.93763 50.4621 11.84H56.4621ZM52.8567 3.55877C50.4329 1.53155 47.2016 0.743998 43.6181 0.743998V6.744C46.4132 6.744 48.0579 7.36711 49.0074 8.16123L52.8567 3.55877ZM43.6181 0.743998H35.0621V6.744H43.6181V0.743998ZM32.0621 3.744V19.89H38.0621V3.744H32.0621ZM35.0621 22.89H43.6181V16.89H35.0621V22.89ZM85.0943 24.398L87.8308 23.1687L87.0354 21.398H85.0943V24.398ZM67.1543 24.398V21.398H65.2131L64.4177 23.1687L67.1543 24.398ZM63.2903 33V36H65.2314L66.0268 34.2293L63.2903 33ZM59.7483 33L57.0198 31.7527L55.0782 36H59.7483V33ZM74.4683 0.799998V-2.2H72.5411L71.7398 -0.447281L74.4683 0.799998ZM77.8263 0.799998L80.5547 -0.447281L79.7534 -2.2H77.8263V0.799998ZM92.5463 33V36H97.2163L95.2747 31.7527L92.5463 33ZM88.9583 33L86.2217 34.2293L87.0171 36H88.9583V33ZM83.8523 21.638V24.638H88.4785L86.5913 20.4142L83.8523 21.638ZM76.1243 4.342L78.8633 3.11818L76.1243 -3.01202L73.3852 3.11818L76.1243 4.342ZM68.3963 21.638L65.6572 20.4142L63.77 24.638H68.3963V21.638ZM85.0943 21.398H67.1543V27.398H85.0943V21.398ZM64.4177 23.1687L60.5537 31.7707L66.0268 34.2293L69.8908 25.6273L64.4177 23.1687ZM63.2903 30H59.7483V36H63.2903V30ZM62.4767 34.2473L77.1967 2.04728L71.7398 -0.447281L57.0198 31.7527L62.4767 34.2473ZM74.4683 3.8H77.8263V-2.2H74.4683V3.8ZM75.0978 2.04728L89.8178 34.2473L95.2747 31.7527L80.5547 -0.447281L75.0978 2.04728ZM92.5463 30H88.9583V36H92.5463V30ZM91.6948 31.7707L87.8308 23.1687L82.3577 25.6273L86.2217 34.2293L91.6948 31.7707ZM86.5913 20.4142L78.8633 3.11818L73.3852 5.56582L81.1132 22.8618L86.5913 20.4142ZM73.3852 3.11818L65.6572 20.4142L71.1353 22.8618L78.8633 5.56582L73.3852 3.11818ZM68.3963 24.638H83.8523V18.638H68.3963V24.638ZM122.983 0.799998L125.726 2.01478L127.592 -2.2H122.983V0.799998ZM108.723 33V36H110.675L111.466 34.2148L108.723 33ZM105.365 33L102.622 34.2148L103.412 36H105.365V33ZM91.1048 0.799998V-2.2H86.4952L88.3617 2.01478L91.1048 0.799998ZM94.7848 0.799998L97.5299 -0.410033L96.7409 -2.2H94.7848V0.799998ZM107.113 28.768L104.368 29.978L107.103 36.1827L109.855 29.9856L107.113 28.768ZM119.533 0.799998V-2.2H117.583L116.791 -0.417581L119.533 0.799998ZM120.24 -0.414781L105.98 31.7852L111.466 34.2148L125.726 2.01478L120.24 -0.414781ZM108.723 30H105.365V36H108.723V30ZM108.108 31.7852L93.8478 -0.414781L88.3617 2.01478L102.622 34.2148L108.108 31.7852ZM91.1048 3.8H94.7848V-2.2H91.1048V3.8ZM92.0397 2.01003L104.368 29.978L109.858 27.558L97.5299 -0.410033L92.0397 2.01003ZM109.855 29.9856L122.275 2.01758L116.791 -0.417581L104.371 27.5504L109.855 29.9856ZM119.533 3.8H122.983V-2.2H119.533V3.8ZM150.426 30.056H153.426V27.056H150.426V30.056ZM150.426 33V36H153.426V33H150.426ZM127.656 33H124.656V36H127.656V33ZM127.656 0.799998V-2.2H124.656V0.799998H127.656ZM149.736 0.799998H152.736V-2.2H149.736V0.799998ZM149.736 3.744V6.744H152.736V3.744H149.736ZM131.06 3.744V0.743998H128.06V3.744H131.06ZM131.06 15.198H128.06V18.198H131.06V15.198ZM147.712 15.198H150.712V12.198H147.712V15.198ZM147.712 18.096V21.096H150.712V18.096H147.712ZM131.06 18.096V15.096H128.06V18.096H131.06ZM131.06 30.056H128.06V33.056H131.06V30.056ZM147.426 30.056V33H153.426V30.056H147.426ZM150.426 30H127.656V36H150.426V30ZM130.656 33V0.799998H124.656V33H130.656ZM127.656 3.8H149.736V-2.2H127.656V3.8ZM146.736 0.799998V3.744H152.736V0.799998H146.736ZM149.736 0.743998H131.06V6.744H149.736V0.743998ZM128.06 3.744V15.198H134.06V3.744H128.06ZM131.06 18.198H147.712V12.198H131.06V18.198ZM144.712 15.198V18.096H150.712V15.198H144.712ZM147.712 15.096H131.06V21.096H147.712V15.096ZM128.06 18.096V30.056H134.06V18.096H128.06ZM131.06 33.056H150.426V27.056H131.06V33.056ZM158.428 0.799998V-2.2H155.428V0.799998H158.428ZM161.832 0.799998H164.832V-2.2H161.832V0.799998ZM161.832 30.056H158.832V33.056H161.832V30.056ZM179.864 30.056H182.864V27.056H179.864V30.056ZM179.864 33V36H182.864V33H179.864ZM158.428 33H155.428V36H158.428V33ZM158.428 3.8H161.832V-2.2H158.428V3.8ZM158.832 0.799998V30.056H164.832V0.799998H158.832ZM161.832 33.056H179.864V27.056H161.832V33.056ZM176.864 30.056V33H182.864V30.056H176.864ZM179.864 30H158.428V36H179.864V30ZM161.428 33V0.799998H155.428V33H161.428ZM185.515 0.799998V-2.2H182.515V0.799998H185.515ZM188.919 0.799998H191.919V-2.2H188.919V0.799998ZM188.919 30.056H185.919V33.056H188.919V30.056ZM206.951 30.056H209.951V27.056H206.951V30.056ZM206.951 33V36H209.951V33H206.951ZM185.515 33H182.515V36H185.515V33ZM185.515 3.8H188.919V-2.2H185.515V3.8ZM185.919 0.799998V30.056H191.919V0.799998H185.919ZM188.919 33.056H206.951V27.056H188.919V33.056ZM203.951 30.056V33H209.951V30.056H203.951ZM206.951 30H185.515V36H206.951V30ZM188.515 33V0.799998H182.515V33H188.515ZM235.373 30.056H238.373V27.056H235.373V30.056ZM235.373 33V36H238.373V33H235.373ZM212.603 33H209.603V36H212.603V33ZM212.603 0.799998V-2.2H209.603V0.799998H212.603ZM234.683 0.799998H237.683V-2.2H234.683V0.799998ZM234.683 3.744V6.744H237.683V3.744H234.683ZM216.007 3.744V0.743998H213.007V3.744H216.007ZM216.007 15.198H213.007V18.198H216.007V15.198ZM232.659 15.198H235.659V12.198H232.659V15.198ZM232.659 18.096V21.096H235.659V18.096H232.659ZM216.007 18.096V15.096H213.007V18.096H216.007ZM216.007 30.056H213.007V33.056H216.007V30.056ZM232.373 30.056V33H238.373V30.056H232.373ZM235.373 30H212.603V36H235.373V30ZM215.603 33V0.799998H209.603V33H215.603ZM212.603 3.8H234.683V-2.2H212.603V3.8ZM231.683 0.799998V3.744H237.683V0.799998H231.683ZM234.683 0.743998H216.007V6.744H234.683V0.743998ZM213.007 3.744V15.198H219.007V3.744H213.007ZM216.007 18.198H232.659V12.198H216.007V18.198ZM229.659 15.198V18.096H235.659V15.198H229.659ZM232.659 15.096H216.007V21.096H232.659V15.096ZM213.007 18.096V30.056H219.007V18.096H213.007ZM216.007 33.056H235.373V27.056H216.007V33.056ZM265.363 33L262.918 34.7386L263.815 36H265.363V33ZM258.003 22.65L260.448 20.9114L259.425 19.4735L257.672 19.6683L258.003 22.65ZM246.779 22.788V19.788H243.779V22.788H246.779ZM246.779 33V36H249.779V33H246.779ZM243.375 33H240.375V36H243.375V33ZM243.375 0.799998V-2.2H240.375V0.799998H243.375ZM265.087 3.744L263.154 6.03873L263.154 6.03873L265.087 3.744ZM266.651 18.234L264.236 16.4544L264.23 16.4618L266.651 18.234ZM261.223 21.96L260.296 19.1066L256.406 20.3697L258.78 23.7008L261.223 21.96ZM269.089 33V36H274.91L271.532 31.2592L269.089 33ZM262.649 17.774L264.574 20.0752L264.574 20.0752L262.649 17.774ZM262.649 5.86L260.724 8.16123L260.737 8.17162L260.749 8.18187L262.649 5.86ZM246.779 3.744V0.743998H243.779V3.744H246.779ZM246.779 19.89H243.779V22.89H246.779V19.89ZM267.808 31.2614L260.448 20.9114L255.558 24.3886L262.918 34.7386L267.808 31.2614ZM257.672 19.6683C256.961 19.7473 256.213 19.788 255.427 19.788V25.788C256.42 25.788 257.389 25.7367 258.334 25.6317L257.672 19.6683ZM255.427 19.788H246.779V25.788H255.427V19.788ZM243.779 22.788V33H249.779V22.788H243.779ZM246.779 30H243.375V36H246.779V30ZM246.375 33V0.799998H240.375V33H246.375ZM243.375 3.8H255.427V-2.2H243.375V3.8ZM255.427 3.8C259.077 3.8 261.528 4.66893 263.154 6.03873L267.019 1.44927C263.985 -1.10627 259.996 -2.2 255.427 -2.2V3.8ZM263.154 6.03873C264.717 7.3547 265.583 9.16388 265.583 11.84H271.583C271.583 7.64679 270.118 4.05863 267.019 1.44926L263.154 6.03873ZM265.583 11.84C265.583 13.8193 265.086 15.3006 264.236 16.4544L269.066 20.0136C270.792 17.6714 271.583 14.89 271.583 11.84H265.583ZM264.23 16.4618C263.404 17.5899 262.162 18.5011 260.296 19.1066L262.149 24.8134C265.007 23.8856 267.383 22.3128 269.071 20.0062L264.23 16.4618ZM258.78 23.7008L266.646 34.7408L271.532 31.2592L263.666 20.2192L258.78 23.7008ZM269.089 30H265.363V36H269.089V30ZM255.335 22.89C258.918 22.89 262.15 22.1024 264.574 20.0752L260.724 15.4728C259.775 16.2669 258.13 16.89 255.335 16.89V22.89ZM264.574 20.0752C267.053 18.0015 268.179 15.1177 268.179 11.84H262.179C262.179 13.653 261.618 14.7252 260.724 15.4728L264.574 20.0752ZM268.179 11.84C268.179 8.52904 267.07 5.60114 264.549 3.53813L260.749 8.18187C261.601 8.87886 262.179 9.93763 262.179 11.84H268.179ZM264.574 3.55877C262.15 1.53155 258.918 0.743998 255.335 0.743998V6.744C258.13 6.744 259.775 7.36711 260.724 8.16123L264.574 3.55877ZM255.335 0.743998H246.779V6.744H255.335V0.743998ZM243.779 3.744V19.89H249.779V3.744H243.779ZM246.779 22.89H255.335V16.89H246.779V22.89ZM278.595 32.126L277.599 34.9557L277.611 34.96L278.595 32.126ZM273.535 29.09L270.861 27.7296L269.899 29.6205L271.361 31.1576L273.535 29.09ZM274.869 26.468L276.99 24.3467L274.069 21.4251L272.195 25.1076L274.869 26.468ZM279.515 29.32L278.447 32.1235L278.467 32.1309L278.486 32.1381L279.515 29.32ZM291.981 28.814L293.739 31.2447L293.756 31.2325L293.773 31.2201L291.981 28.814ZM292.947 21.592L290.826 23.7133L290.847 23.7341L290.868 23.7545L292.947 21.592ZM290.095 19.844L289.033 22.6499L289.067 22.6625L289.101 22.6744L290.095 19.844ZM285.357 18.464L284.621 21.3722L284.635 21.376L284.65 21.3795L285.357 18.464ZM279.561 16.716L278.437 19.4973L278.462 19.5077L278.488 19.5176L279.561 16.716ZM275.835 14.094L273.57 16.0611L273.585 16.0778L273.599 16.0944L275.835 14.094ZM275.605 4.94L278.119 6.57702L278.128 6.56387L278.136 6.55062L275.605 4.94ZM279.561 1.72L280.788 4.45753L280.788 4.45753L279.561 1.72ZM291.567 1.306L290.71 4.18086L290.739 4.18973L290.769 4.19798L291.567 1.306ZM296.167 3.376L298.929 4.54645L299.883 2.29603L297.872 0.907306L296.167 3.376ZM295.017 6.09L293.366 8.59487L296.374 10.5773L297.779 7.26045L295.017 6.09ZM290.693 4.112L289.831 6.98548L289.858 6.99343L289.884 7.00089L290.693 4.112ZM279.791 5.078L281.608 7.4655L281.615 7.45963L279.791 5.078ZM278.825 12.392L276.663 14.4713L276.703 14.5137L276.746 14.5545L278.825 12.392ZM281.769 14.186L280.732 17.001L280.776 17.0172L280.82 17.032L281.769 14.186ZM286.553 15.52L287.272 12.6074L287.27 12.607L286.553 15.52ZM292.257 17.268L291.133 20.0493L291.168 20.0636L291.204 20.077L292.257 17.268ZM295.983 19.844L293.718 21.8111L293.731 21.826L293.744 21.8408L295.983 19.844ZM296.167 28.952L293.662 27.3011L293.658 27.308L293.653 27.315L296.167 28.952ZM292.165 32.126L293.335 34.8883L293.355 34.8799L293.375 34.8713L292.165 32.126ZM285.495 30.276C283.43 30.276 281.463 29.9462 279.579 29.292L277.611 34.96C280.143 35.8391 282.776 36.276 285.495 36.276V30.276ZM279.591 29.2963C277.72 28.6372 276.488 27.8419 275.709 27.0224L271.361 31.1576C272.974 32.8527 275.116 34.0814 277.599 34.9557L279.591 29.2963ZM276.209 30.4504L277.543 27.8284L272.195 25.1076L270.861 27.7296L276.209 30.4504ZM272.748 28.5893C274.278 30.1196 276.217 31.274 278.447 32.1235L280.583 26.5165C278.949 25.894 277.791 25.147 276.99 24.3467L272.748 28.5893ZM278.486 32.1381C280.748 32.9636 283.089 33.378 285.495 33.378V27.378C283.792 27.378 282.147 27.087 280.544 26.5019L278.486 32.1381ZM285.495 33.378C288.65 33.378 291.557 32.8235 293.739 31.2447L290.223 26.3833C289.523 26.8898 288.106 27.378 285.495 27.378V33.378ZM293.773 31.2201C295.916 29.6239 297.143 27.3786 297.143 24.674H291.143C291.143 25.3427 290.928 25.8575 290.189 26.4079L293.773 31.2201ZM297.143 24.674C297.143 22.7158 296.509 20.8555 295.026 19.4295L290.868 23.7545C290.979 23.8618 291.143 24.0562 291.143 24.674H297.143ZM295.068 19.4707C293.951 18.3529 292.601 17.5448 291.09 17.0136L289.101 22.6744C289.858 22.9405 290.41 23.2977 290.826 23.7133L295.068 19.4707ZM291.157 17.0381C289.853 16.5448 288.136 16.0508 286.064 15.5484L284.65 21.3795C286.626 21.8585 288.068 22.2845 289.033 22.6499L291.157 17.0381ZM286.093 15.5558C283.724 14.956 281.919 14.4067 280.634 13.9144L278.488 19.5176C280.085 20.1293 282.144 20.7453 284.621 21.3722L286.093 15.5558ZM280.685 13.9347C279.672 13.525 278.809 12.9192 278.071 12.0936L273.599 16.0944C274.946 17.5995 276.567 18.7417 278.437 19.4973L280.685 13.9347ZM278.1 12.1269C277.687 11.6507 277.317 10.8421 277.317 9.356H271.317C271.317 11.8565 271.96 14.2067 273.57 16.0611L278.1 12.1269ZM277.317 9.356C277.317 8.2917 277.588 7.39196 278.119 6.57702L273.091 3.30298C271.904 5.12537 271.317 7.16963 271.317 9.356H277.317ZM278.136 6.55062C278.617 5.79532 279.427 5.06778 280.788 4.45753L278.334 -1.01753C276.138 -0.033121 274.311 1.38601 273.074 3.32937L278.136 6.55062ZM280.788 4.45753C282.07 3.88286 283.83 3.524 286.185 3.524V-2.476C283.266 -2.476 280.609 -2.03753 278.334 -1.01753L280.788 4.45753ZM286.185 3.524C287.737 3.524 289.242 3.74324 290.71 4.18086L292.424 -1.56886C290.396 -2.17391 288.313 -2.476 286.185 -2.476V3.524ZM290.769 4.19798C292.281 4.6149 293.495 5.17691 294.462 5.84469L297.872 0.907306C296.263 -0.203582 294.411 -1.02157 292.365 -1.58598L290.769 4.19798ZM293.405 2.20555L292.255 4.91955L297.779 7.26045L298.929 4.54645L293.405 2.20555ZM296.668 3.58512C295.063 2.52758 293.339 1.73738 291.502 1.22311L289.884 7.00089C291.114 7.34529 292.272 7.87375 293.366 8.59487L296.668 3.58512ZM291.555 1.23852C289.766 0.701922 287.973 0.422 286.185 0.422V6.422C287.341 6.422 288.553 6.60208 289.831 6.98548L291.555 1.23852ZM286.185 0.422C283.047 0.422 280.151 1.0234 277.967 2.69636L281.615 7.45963C282.314 6.9246 283.68 6.422 286.185 6.422V0.422ZM277.974 2.69051C275.846 4.30982 274.675 6.57495 274.675 9.264H280.675C280.675 8.51839 280.915 7.99284 281.608 7.46548L277.974 2.69051ZM274.675 9.264C274.675 11.1904 275.271 13.0237 276.663 14.4713L280.988 10.3127C280.846 10.1656 280.675 9.9136 280.675 9.264H274.675ZM276.746 14.5545C277.876 15.6416 279.226 16.4461 280.732 17.001L282.806 11.371C281.982 11.0673 281.368 10.6757 280.904 10.2295L276.746 14.5545ZM280.82 17.032C282.125 17.4669 283.806 17.9335 285.836 18.433L287.27 12.607C285.313 12.1252 283.805 11.7025 282.718 11.3399L280.82 17.032ZM285.834 18.4326C288.125 18.9979 289.875 19.541 291.133 20.0493L293.381 14.4867C291.756 13.8297 289.703 13.2074 287.272 12.6074L285.834 18.4326ZM291.204 20.077C292.217 20.457 293.04 21.0301 293.718 21.8111L298.248 17.8769C296.902 16.3272 295.241 15.183 293.31 14.459L291.204 20.077ZM293.744 21.8408C294.137 22.2812 294.501 23.0437 294.501 24.49H300.501C300.501 22.0109 299.853 19.6761 298.222 17.8472L293.744 21.8408ZM294.501 24.49C294.501 25.532 294.227 26.4448 293.662 27.3011L298.672 30.6029C299.886 28.7606 300.501 26.6986 300.501 24.49H294.501ZM293.653 27.315C293.185 28.0339 292.368 28.7582 290.955 29.3807L293.375 34.8713C295.581 33.8991 297.432 32.5074 298.681 30.589L293.653 27.315ZM290.995 29.3637C289.659 29.9297 287.86 30.276 285.495 30.276V36.276C288.405 36.276 291.053 35.8556 293.335 34.8883L290.995 29.3637Z" fill="white"/>
</svg>
